<?xml version="1.0" standalone="no"?>
<!DOCTYPE svg PUBLIC "-//W3C//DTD SVG 20010904//EN"
 "http://www.w3.org/TR/2001/REC-SVG-20010904/DTD/svg10.dtd">
<svg version="1.0" xmlns="http://www.w3.org/2000/svg"
 width="352.000000pt" height="76.000000pt" viewBox="0 0 352.000000 76.000000"
 preserveAspectRatio="xMidYMid meet">

<g transform="translate(0.000000,76.000000) scale(0.100000,-0.100000)"
fill="#000000" stroke="none">
<path d="M1630 375 l0 -365 85 0 85 0 0 151 0 151 29 29 c36 35 64 37 96 4 24
-24 25 -28 25 -180 l0 -155 85 0 85 0 0 168 c0 92 -5 185 -11 207 -32 113
-178 157 -281 84 l-28 -20 0 145 0 146 -85 0 -85 0 0 -365z"/>
<path d="M1217 516 c-66 -18 -117 -61 -151 -129 -71 -141 -11 -304 131 -357
107 -40 214 -19 283 57 23 25 38 48 34 52 -5 4 -35 17 -66 29 l-58 21 -24 -24
c-37 -37 -98 -35 -137 4 -16 16 -29 34 -29 40 0 8 56 11 171 11 l172 0 -6 61
c-11 121 -78 209 -181 236 -60 16 -77 15 -139 -1z m127 -137 c48 -38 35 -49
-59 -49 -47 0 -85 3 -85 8 1 12 24 38 45 50 31 18 70 14 99 -9z"/>
<path d="M2477 495 c-22 -7 -50 -23 -63 -36 l-24 -22 0 32 0 32 -82 -3 -83 -3
-3 -242 -2 -243 84 0 85 0 3 156 3 156 28 24 c34 29 56 30 91 3 l26 -20 0
-160 0 -159 85 0 85 0 0 168 c0 92 -5 184 -11 205 -15 56 -61 103 -113 116
-55 14 -62 13 -109 -4z"/>
<path d="M540 425 l0 -75 90 0 c50 0 90 -2 90 -5 0 -2 -44 -73 -98 -157 -54
-84 -102 -159 -106 -165 -6 -10 43 -13 229 -13 l236 0 -3 73 -3 72 -93 5 -93
5 101 157 c55 86 100 162 100 167 0 8 -74 11 -225 11 l-225 0 0 -75z"/>
<path d="M2851 206 c-31 -17 -50 -53 -51 -94 0 -49 54 -102 105 -102 49 0 105
53 105 100 0 86 -85 137 -159 96z"/>
</g>
</svg>
